<?xml version="1.0"?>
<!-- Generated by SVGo -->
<svg width="800" height="260"
     xmlns="http://www.w3.org/2000/svg"
     xmlns:xlink="http://www.w3.org/1999/xlink">
<rect x="0" y="0" width="800" height="260" style="fill:#0d1117" />
<rect x="40" y="30" width="720" height="200" rx="12" ry="12" style="fill:#0b1220;stroke:#121524;stroke-width:1" />
<text x="62" y="66" style="fill:#cdd6f4;font-size:18px;font-weight:700" >Jack Plowman</text>
<text x="62" y="88" style="fill:#94a3b8;font-size:12px" >@JackPlowman</text>
<clipPath id="avatar-clip" ><rect x="668" y="48" width="64" height="64" rx="8" ry="8"  />
</clipPath>
<image x="668" y="48" width="64" height="64" xlink:href="https://avatars.githubusercontent.com/u/62281988?v=4" clip-path="url(#avatar-clip)" />
<rect x="62" y="110" width="180" height="64" rx="8" ry="8" style="fill:#071029" />
<text x="76" y="136" style="fill:#9be7ff;font-size:20px;font-weight:700" >5707</text>
<text x="76" y="156" style="fill:#9aa6b8;font-size:12px" >commits</text>
<rect x="258" y="110" width="180" height="64" rx="8" ry="8" style="fill:#071029" />
<text x="272" y="136" style="fill:#ffd580;font-size:20px;font-weight:700" >5561</text>
<text x="272" y="156" style="fill:#9aa6b8;font-size:12px" >pull requests</text>
<rect x="454" y="110" width="180" height="64" rx="8" ry="8" style="fill:#071029" />
<text x="468" y="136" style="fill:#ff9b9b;font-size:20px;font-weight:700" >1420</text>
<text x="468" y="156" style="fill:#9aa6b8;font-size:12px" >open issues</text>
<text x="62" y="194" style="fill:#94a3b8;font-size:12px" >Top languages</text>
<rect x="62" y="206" width="220" height="12" style="fill:#2b8bd6;rx:4;ry:4" />
<rect x="292" y="206" width="140" height="12" style="fill:#6bcB8b;rx:4;ry:4" />
<rect x="442" y="206" width="80" height="12" style="fill:#f6c85f;rx:4;ry:4" />
<text x="62" y="212" style="fill:#6b7280;font-size:11px" >Generated (static) — data will be dynamic later</text>
</svg>
